<svg width="39" height="36" viewBox="0 0 39 36" fill="none" xmlns="http://www.w3.org/2000/svg">
<path d="M1.5073 10.7975C6.28921 11.5332 10.5794 14.5744 15.1111 16.085C19.7777 17.6405 23.2221 21.1496 27.4058 23.5029C30.0365 24.9827 31.9479 27.3379 34.3104 29.1754C35.0379 29.7413 37.4931 31.5685 37.4931 32.6662C37.4931 33.3097 36.8399 31.5334 36.3638 31.1005C34.5835 29.4821 33.1263 27.264 31.7436 25.3253C27.0989 18.8125 24.0459 11.5145 19.7569 4.84264C19.1055 3.82928 14.7208 -0.467174 14.9057 2.5839C15.1749 7.02579 17.2645 11.6279 18.3965 15.8797C19.3761 19.5588 20.1787 23.2977 21.374 26.9167C22.1362 29.2246 23.377 31.3864 24.0434 33.7186C24.656 35.8626 22.9416 31.8498 22.6573 31.3828C19.1811 25.6719 15.5966 19.9893 12.185 14.2626C11.2093 12.6249 10.2758 10.8944 9.38722 9.20611C9.0291 8.52567 7.31698 7.19797 8.07818 7.30672C8.77774 7.40665 9.38103 10.1213 9.6439 10.6178C10.3842 12.0162 11.9579 13.8357 12.1336 15.4176C12.16 15.6546 13.0864 17.5407 13.263 17.7277C14.3181 18.8449 14.5837 20.5885 15.6244 21.6292C16.673 22.6778 17.8704 25.4092 18.1655 26.737C18.3556 27.5925 18.8232 28.5055 19.1665 29.2781C19.8757 30.8737 19.5745 28.6264 19.2949 28.1231C18.3745 26.4663 18.6708 24.6207 16.9848 23.2719C15.7178 22.2583 15.0393 20.829 13.5197 19.9351C13.0077 19.6339 13.0875 19.1588 13.0577 18.6518C13.0207 18.0225 12.3098 18.2497 11.9026 17.9331C11.2131 17.3967 10.2751 16.9985 9.7209 16.4443C9.27004 15.9935 7.63869 15.9713 7.53916 15.623C7.31881 14.8518 6.4896 14.5421 5.66544 14.4936C5.02119 14.4557 5.41913 13.9906 5.10075 13.6723C4.78862 13.3601 3.99504 13.8449 3.84304 13.3129C3.5627 12.3317 2.44671 12.0347 1.5073 11.7215" stroke="#D8F8FF" stroke-width="3" stroke-linecap="round"/>
</svg>
