<svg width="60" height="105" viewBox="0 0 60 105" fill="none" xmlns="http://www.w3.org/2000/svg">
<path d="M6.96809 25.3551C10.3305 30.6228 14.8289 35.0297 18.4497 40.0988C19.3388 41.3436 20.1317 42.423 21.1981 43.4894C21.4446 43.7359 21.3312 42.5132 21.2751 42.2051C20.8089 39.6408 19.3558 36.4057 18.3213 34.0627C14.2824 24.9159 9.35632 16.1465 4.86185 7.22089C4.57196 6.64521 2.73658 1.24886 1.52268 1.51862C1.17322 1.59628 7.20787 12.0885 7.48181 12.5636C11.6127 19.7272 16.463 26.3949 21.044 33.2664C23.1936 36.4908 24.9898 40.2418 27.6966 43.0527C28.0455 43.415 29.1812 45.0808 29.1607 44.7737C29.1042 43.9258 27.4507 42.0749 26.9774 41.4088C24.3769 37.7489 22.4057 33.5398 19.2973 30.2868C17.8308 28.7521 16.8315 26.7752 18.9377 30.2355C25.5217 41.0521 31.3822 52.27 37.7398 63.2162C43.2176 72.6475 49.4035 81.7919 54.076 91.6761C55.4725 94.6302 56.2536 97.7642 56.7987 100.974C56.9941 102.125 56.5755 103.075 57.8262 103.492" stroke="#D8F8FF" stroke-width="3" stroke-linecap="round"/>
</svg>
