<svg width="33" height="40" viewBox="0 0 33 40" fill="none" xmlns="http://www.w3.org/2000/svg">
<path d="M4.29477 2.46479C8.63392 8.77627 12.6358 14.9745 18.0996 20.2359C18.9024 21.009 20.0295 21.4271 20.6236 22.3994C20.9463 22.9275 22.2477 24.6032 20.9842 23.069C18.1749 19.6577 14.7842 16.663 11.6608 13.5396C9.01169 10.8905 6.02238 6.59618 2.46615 5.04032C1.10747 4.4459 1.50424 5.84709 1.82227 6.71442C2.45921 8.45154 3.61024 10.0194 4.4493 11.6594C7.36223 17.3529 9.93624 23.2267 12.588 29.0443C13.4683 30.9755 14.2035 33.0232 15.1635 34.9165C15.6507 35.8773 16.5146 36.6575 16.8118 37.698C17.2907 39.374 17.2815 38.028 16.8118 36.9254C14.0631 30.4719 11.1981 24.0611 8.10656 17.7634C7.1786 15.8732 6.38736 13.867 5.32498 12.0458C4.71607 11.0019 4.83946 11.828 5.24772 12.4063C7.42384 15.4892 11.3871 17.8358 14.1848 20.339C15.7579 21.7465 17.3431 23.337 19.1298 24.4856C21.1723 25.7986 17.2765 21.738 16.8118 21.1116C14.5924 18.1203 7.83157 9.33234 9.49734 12.6639C10.8766 15.4225 14.2823 18.134 16.5543 20.0814C17.0875 20.5384 22.0717 24.8777 19.7995 22.6054C18.526 21.332 17.5965 20.0019 16.1422 18.8967C14.7991 17.8759 12.3196 15.7537 11.4547 14.3122C9.82129 11.5898 11.0708 13.7935 12.1759 14.7758C12.7985 15.3292 14.6003 17.562 15.215 17.7377C16.0459 17.9751 18.1264 19.1748 18.6662 19.8496C19.5931 21.0082 21.9723 20.545 23.3022 20.545C25.0891 20.545 21.464 18.5204 20.8039 18.227C20.1019 17.915 20.3201 17.0235 19.3616 16.8105C18.4755 16.6136 18.3017 16.0081 17.739 15.4455C16.7082 14.4146 15.5731 14.0007 14.5969 13.0245C13.1615 11.589 10.3468 8.48941 9.88367 6.40535C9.61346 5.18941 8.85426 4.22359 8.10656 3.28896C7.88313 3.00969 7.53994 2.12997 7.53994 1.7694C7.53994 0.882677 7.70821 2.54378 7.90051 2.92839C8.5103 4.14796 9.97865 4.97839 10.2958 6.40535C10.5483 7.542 11.2092 9.02621 11.9441 9.90807C13.4268 11.6874 15.6151 16.684 18.2026 16.8362C19.1555 16.8923 19.8827 18.4716 20.7524 18.6649C21.9538 18.9319 22.8959 19.7335 24.0233 20.0557C24.703 20.2498 26.8874 20.2607 27.3715 20.648C28.325 21.4108 29.9203 21.9358 31.1833 21.9358" stroke="#D8F8FF" stroke-width="3" stroke-linecap="round"/>
</svg>
