<svg width="46" height="39" viewBox="0 0 46 39" fill="none" xmlns="http://www.w3.org/2000/svg">
<path d="M11.7815 28.6152C20.8394 21.2992 29.7427 13.7671 39.2813 7.07111C40.6883 6.0834 42.2963 5.53175 43.5797 4.48167C44.1864 3.98534 45.0888 4.2709 43.8905 5.15493C36.8683 10.3352 30.1147 15.841 23.2786 21.2612C17.0455 26.2033 10.5156 31.9865 3.65067 36.0728C3.21501 36.3321 2.34471 37.4711 1.99343 37.4711C0.45366 37.4711 3.15082 34.6594 3.23636 34.5709C9.93374 27.6452 16.5096 20.6051 22.3464 12.9232C24.1634 10.5317 26.7415 7.95931 28.1985 5.31029C28.4225 4.90301 29.3588 3.95594 28.9235 4.11915C28.4528 4.29568 28.1117 5.51829 27.8878 5.87997C26.8108 7.61971 25.2671 9.03843 23.9 10.5409C19.7483 15.1041 15.9016 19.9329 11.7815 24.5239C10.6908 25.7393 9.68771 27.069 8.62238 28.2527C7.62471 29.3612 9.1536 26.7961 9.39921 26.5436C14.3446 21.4608 18.7577 16.3902 22.8643 10.5927C24.1551 8.77045 25.6977 7.17699 27.0591 5.41387C27.6152 4.69376 28.2125 2.95985 29.053 2.5396C29.7633 2.18443 29.9584 1.33739 29.8557 1.55561C26.8302 7.98488 22.1099 13.5607 17.7631 19.112C14.8731 22.8028 10.997 26.8235 9.01079 31.1269C8.96381 31.2288 8.10449 32.7976 8.10449 32.085C8.10449 30.7561 12.0385 29.0626 12.9467 28.3563C14.6682 27.0173 17.3114 25.3565 18.4104 23.4881C19.222 22.1084 21.3236 20.872 22.5017 19.7593C23.1476 19.1493 24.6671 16.1067 22.9678 17.636C20.8665 19.5272 18.9791 21.5394 16.9086 23.4881C15.0435 25.2435 19.3407 18.9793 20.6115 16.7556C21.1303 15.8476 22.488 13.2384 21.3365 15.7716C20.8889 16.7563 21.0289 17.8038 20.4043 18.7753C19.851 19.6361 19.2391 19.1571 19.2391 20.4326C19.2391 22.7877 17.3747 25.023 17.3747 27.45C17.3747 28.7298 17.2449 29.6519 16.9345 30.7385C16.8523 31.026 16.4425 34.4857 16.4425 32.577C16.4425 29.8707 17.7574 26.5519 20.1713 24.99C20.5505 24.7446 21.0465 24.4381 21.1035 23.9542C21.225 22.9212 21.9433 23.3423 22.5017 22.8149C23.5311 21.8427 24.6425 21.1402 25.6609 20.1219C27.6494 18.1333 30.1994 16.8006 32.5487 15.3055C33.8035 14.507 35.1281 13.8488 36.2516 12.975C36.4623 12.8111 37.9676 11.9206 37.3651 12.975C37.1146 13.4134 35.7993 13.6665 35.3194 13.9331C33.5019 14.9429 31.9897 17.4288 29.4932 17.4288" stroke="#D8F8FF" stroke-width="3" stroke-linecap="round"/>
</svg>
