<svg width="33" height="33" viewBox="0 0 33 33" fill="none" xmlns="http://www.w3.org/2000/svg">
<path d="M7.51347 25.1706C10.1675 22.2511 13.8249 20.5956 17.1134 18.4455C18.9695 17.2319 20.0865 14.9623 22.0674 14.0819C24.2316 13.12 26.0704 10.1045 27.74 8.4349C28.4406 7.73433 28.2489 7.17654 28.3047 6.22743C28.332 5.76371 30.0306 3.34374 30.4095 3.0189C30.6841 2.78353 31.9659 1.08076 31.3079 1.60715C30.6926 2.09938 29.8089 3.73238 29.4598 4.43065C27.5311 8.28816 25.2075 12.5931 22.2984 15.6733C21.1663 16.872 20.9318 18.5865 19.5262 19.5236C18.0002 20.5409 16.6728 22.2778 14.9316 23.3225C10.5207 25.969 5.7 28.3817 1.5071 31.177" stroke="#D8F8FF" stroke-width="3" stroke-linecap="round"/>
</svg>
